<?xml version="1.0" encoding="UTF-8"?>
<svg xmlns="http://www.w3.org/2000/svg" xmlns:xlink="http://www.w3.org/1999/xlink" width="79.521pt" height="80.248pt" viewBox="0 0 79.521 80.248" version="1.2">
<defs>
<g>
<symbol overflow="visible" id="glyph0-0">
<path style="stroke:none;" d="M 3.15625 -1.671875 L 3.15625 -1.84375 C 3.15625 -2.90625 4.75 -3.6875 4.75 -5.140625 C 4.75 -6.15625 3.890625 -6.609375 2.921875 -6.609375 C 1.921875 -6.609375 1.25 -6.046875 1.25 -5.25 C 1.25 -4.78125 1.4375 -4.546875 1.75 -4.546875 C 1.984375 -4.546875 2.1875 -4.6875 2.1875 -4.984375 C 2.1875 -5.359375 1.984375 -5.375 1.984375 -5.703125 C 1.984375 -6 2.25 -6.234375 2.828125 -6.234375 C 3.46875 -6.234375 3.859375 -5.890625 3.859375 -5.109375 C 3.859375 -3.578125 2.765625 -3.21875 2.765625 -1.9375 L 2.765625 -1.671875 Z M 3.53125 -0.46875 C 3.53125 -0.78125 3.328125 -1.0625 2.984375 -1.0625 C 2.609375 -1.0625 2.40625 -0.796875 2.40625 -0.46875 C 2.40625 -0.140625 2.59375 0.078125 2.96875 0.078125 C 3.328125 0.078125 3.53125 -0.15625 3.53125 -0.46875 Z M 5.875 1.671875 L 5.875 -7.75 L 0.09375 -7.75 L 0.09375 1.671875 Z M 5.359375 1.140625 L 0.609375 1.140625 L 0.609375 -7.25 L 5.359375 -7.25 Z M 5.359375 1.140625 "/>
</symbol>
<symbol overflow="visible" id="glyph0-1">
<path style="stroke:none;" d="M 3.109375 -2.9375 L 3.078125 -2.9375 L 2.96875 -3.453125 C 2.828125 -3.984375 2.640625 -4.421875 2.40625 -4.6875 L 2.25 -4.6875 L 0.875 -4.53125 L 0.875 -4.234375 C 0.875 -4.234375 1.03125 -4.265625 1.1875 -4.265625 C 1.84375 -4.28125 2 -4.015625 2.265625 -3.1875 L 2.546875 -2.28125 L 1.84375 -1.25 C 1.453125 -0.6875 1.28125 -0.6875 1.234375 -0.6875 C 1.0625 -0.6875 0.828125 -0.8125 0.609375 -0.8125 C 0.375 -0.8125 0.234375 -0.59375 0.234375 -0.390625 C 0.234375 -0.140625 0.375 0.09375 0.796875 0.09375 C 1.390625 0.09375 1.71875 -0.375 2.03125 -0.890625 L 2.671875 -1.921875 L 2.703125 -1.921875 L 2.953125 -0.921875 C 3.09375 -0.28125 3.3125 0.09375 3.765625 0.09375 C 4.4375 0.09375 4.84375 -0.578125 5.140625 -1 L 4.921875 -1.171875 C 4.65625 -0.8125 4.46875 -0.609375 4.21875 -0.609375 C 3.90625 -0.609375 3.71875 -0.984375 3.4375 -1.890625 L 3.234375 -2.5625 L 3.828125 -3.515625 C 4 -3.796875 4.140625 -3.9375 4.359375 -3.9375 C 4.5 -3.9375 4.71875 -3.828125 4.875 -3.828125 C 5.140625 -3.828125 5.328125 -4.0625 5.328125 -4.296875 C 5.328125 -4.578125 5.21875 -4.734375 4.84375 -4.734375 C 4.25 -4.734375 3.859375 -4.25 3.59375 -3.765625 Z M 3.109375 -2.9375 "/>
</symbol>
<symbol overflow="visible" id="glyph0-2">
<path style="stroke:none;" d="M 2.484375 -3.203125 C 2.359375 -4 2.296875 -4.3125 2.078125 -4.6875 L 1.921875 -4.6875 L 0.515625 -4.578125 L 0.515625 -4.296875 C 0.515625 -4.296875 0.734375 -4.3125 0.875 -4.3125 C 1.46875 -4.3125 1.515625 -3.828125 1.59375 -3.390625 L 2.171875 0.09375 C 1.890625 0.515625 1.1875 1.453125 1 1.453125 C 0.78125 1.453125 0.671875 0.921875 0.296875 0.921875 C 0.0625 0.921875 -0.09375 1.0625 -0.09375 1.359375 C -0.09375 1.71875 0.25 2 0.671875 2 C 1.421875 2 2.109375 0.875 2.859375 -0.140625 C 3.375 -0.859375 3.9375 -1.703125 4.46875 -2.640625 C 4.78125 -3.1875 4.890625 -3.625 4.890625 -4.015625 C 4.890625 -4.4375 4.640625 -4.765625 4.28125 -4.765625 C 3.984375 -4.765625 3.84375 -4.578125 3.84375 -4.375 C 3.84375 -4 4.328125 -3.71875 4.328125 -3.46875 C 4.328125 -3.234375 4.234375 -2.984375 4 -2.609375 L 2.859375 -0.78125 L 2.796875 -0.78125 L 2.71875 -1.765625 Z M 2.484375 -3.203125 "/>
</symbol>
</g>
</defs>
<g id="surface1">
<path style="fill:none;stroke-width:0.79701;stroke-linecap:butt;stroke-linejoin:miter;stroke:rgb(0%,0%,0%);stroke-opacity:1;stroke-miterlimit:10;" d="M -0.00186894 0.00106295 L 55.986676 0.00106295 " transform="matrix(0.990716,0,0,-0.990716,8.052633,71.848709)"/>
<path style="fill:none;stroke-width:0.6376;stroke-linecap:round;stroke-linejoin:round;stroke:rgb(0%,0%,0%);stroke-opacity:1;stroke-miterlimit:10;" d="M -1.553059 2.071062 C -1.422945 1.294319 0.000425945 0.131177 0.386826 0.00106295 C 0.000425945 -0.129051 -1.422945 -1.296136 -1.553059 -2.072879 " transform="matrix(0.990716,0,0,-0.990716,63.519109,71.848709)"/>
<g style="fill:rgb(0%,0%,0%);fill-opacity:1;">
  <use xlink:href="#glyph0-1" x="67.870086" y="74.17392"/>
</g>
<path style="fill:none;stroke-width:0.79701;stroke-linecap:butt;stroke-linejoin:miter;stroke:rgb(0%,0%,0%);stroke-opacity:1;stroke-miterlimit:10;" d="M -0.00186894 0.00106295 L -0.00186894 55.985665 " transform="matrix(0.990716,0,0,-0.990716,8.052633,71.848709)"/>
<path style="fill:none;stroke-width:0.6376;stroke-linecap:round;stroke-linejoin:round;stroke:rgb(0%,0%,0%);stroke-opacity:1;stroke-miterlimit:10;" d="M -1.55407 2.071868 C -1.423956 1.295125 -0.000585018 0.12804 0.389758 0.00186894 C -0.000585018 -0.128245 -1.423956 -1.29533 -1.55407 -2.072073 " transform="matrix(0,-0.990716,-0.990716,0,8.052633,16.382233)"/>
<g style="fill:rgb(0%,0%,0%);fill-opacity:1;">
  <use xlink:href="#glyph0-2" x="5.362839" y="9.977501"/>
</g>
</g>
</svg>
